<mxfile host="65bd71144e" scale="2" border="0">
    <diagram id="HednDg6qWvIb-N1SLAi-" name="第 1 页">
        <mxGraphModel dx="621" dy="434" grid="1" gridSize="10" guides="1" tooltips="1" connect="1" arrows="1" fold="1" page="1" pageScale="1" pageWidth="827" pageHeight="1169" math="0" shadow="0">
            <root>
                <mxCell id="0"/>
                <mxCell id="1" parent="0"/>
                <mxCell id="29" style="edgeStyle=orthogonalEdgeStyle;html=1;exitX=0;exitY=0.25;exitDx=0;exitDy=0;entryX=1;entryY=0.25;entryDx=0;entryDy=0;labelBackgroundColor=none;fontFamily=Times New Roman;fontSize=14;startArrow=none;startFill=0;" parent="1" source="21" target="19" edge="1">
                    <mxGeometry relative="1" as="geometry"/>
                </mxCell>
                <mxCell id="26" style="edgeStyle=orthogonalEdgeStyle;html=1;exitX=0.75;exitY=0;exitDx=0;exitDy=0;entryX=0.75;entryY=1;entryDx=0;entryDy=0;labelBackgroundColor=none;fontFamily=Times New Roman;fontSize=14;startArrow=none;startFill=0;" parent="1" source="18" target="19" edge="1">
                    <mxGeometry relative="1" as="geometry"/>
                </mxCell>
                <mxCell id="18" value="Learning&lt;br&gt;Algorithm" style="rounded=1;whiteSpace=wrap;html=1;fillColor=#fff2cc;fontFamily=Times New Roman;fontSize=16;strokeColor=#d6b656;fontStyle=1;dashed=1;" parent="1" vertex="1">
                    <mxGeometry x="160" y="200" width="120" height="60" as="geometry"/>
                </mxCell>
                <mxCell id="27" style="edgeStyle=orthogonalEdgeStyle;html=1;exitX=0.25;exitY=1;exitDx=0;exitDy=0;entryX=0.25;entryY=0;entryDx=0;entryDy=0;labelBackgroundColor=none;fontFamily=Times New Roman;fontSize=14;startArrow=none;startFill=0;" parent="1" source="19" target="18" edge="1">
                    <mxGeometry relative="1" as="geometry"/>
                </mxCell>
                <mxCell id="28" style="edgeStyle=orthogonalEdgeStyle;html=1;exitX=1;exitY=0.75;exitDx=0;exitDy=0;entryX=0.002;entryY=0.276;entryDx=0;entryDy=0;labelBackgroundColor=none;fontFamily=Times New Roman;fontSize=14;startArrow=none;startFill=0;entryPerimeter=0;" parent="1" source="19" target="20" edge="1">
                    <mxGeometry relative="1" as="geometry"/>
                </mxCell>
                <mxCell id="19" value="Environment&lt;br&gt;Logic" style="rounded=1;whiteSpace=wrap;html=1;fontFamily=Times New Roman;fontSize=16;fillColor=#d5e8d4;strokeColor=#82b366;fontStyle=1;dashed=1;" parent="1" vertex="1">
                    <mxGeometry x="160" y="80" width="120" height="60" as="geometry"/>
                </mxCell>
                <mxCell id="20" value="" style="rounded=1;whiteSpace=wrap;html=1;labelBackgroundColor=none;fontFamily=Times New Roman;fontSize=14;fillColor=#f8cecc;strokeColor=#b85450;dashed=1;" parent="1" vertex="1">
                    <mxGeometry x="391" y="70" width="120" height="200" as="geometry"/>
                </mxCell>
                <mxCell id="24" style="edgeStyle=orthogonalEdgeStyle;html=1;exitX=0.5;exitY=1;exitDx=0;exitDy=0;entryX=0.5;entryY=0;entryDx=0;entryDy=0;labelBackgroundColor=none;fontFamily=Times New Roman;fontSize=14;startArrow=classic;startFill=1;" parent="1" source="21" target="22" edge="1">
                    <mxGeometry relative="1" as="geometry"/>
                </mxCell>
                <mxCell id="21" value="Isaac Gym&lt;br&gt;Tensor API" style="rounded=1;whiteSpace=wrap;html=1;fontFamily=Times New Roman;fontSize=16;strokeWidth=1;fillColor=none;fontStyle=1" parent="1" vertex="1">
                    <mxGeometry x="401" y="80" width="100" height="60" as="geometry"/>
                </mxCell>
                <mxCell id="22" value="PhysX&lt;br&gt;Engine" style="rounded=1;whiteSpace=wrap;html=1;fontFamily=Times New Roman;fontSize=16;fillColor=none;strokeWidth=1;fontStyle=1" parent="1" vertex="1">
                    <mxGeometry x="401" y="200" width="100" height="60" as="geometry"/>
                </mxCell>
                <mxCell id="25" value="Robot States" style="text;html=1;align=center;verticalAlign=middle;resizable=0;points=[];autosize=1;strokeColor=none;fillColor=none;fontSize=14;fontFamily=Times New Roman;" parent="1" vertex="1">
                    <mxGeometry x="288" y="74" width="90" height="20" as="geometry"/>
                </mxCell>
                <mxCell id="31" value="Joint Torques" style="text;html=1;align=center;verticalAlign=middle;resizable=0;points=[];autosize=1;strokeColor=none;fillColor=none;fontSize=14;fontFamily=Times New Roman;" parent="1" vertex="1">
                    <mxGeometry x="288" y="126" width="90" height="20" as="geometry"/>
                </mxCell>
                <mxCell id="32" value="Observation &amp;amp;&lt;br&gt;Rewards" style="text;html=1;align=center;verticalAlign=middle;resizable=0;points=[];autosize=1;strokeColor=none;fillColor=none;fontSize=14;fontFamily=Times New Roman;" parent="1" vertex="1">
                    <mxGeometry x="95" y="150" width="100" height="40" as="geometry"/>
                </mxCell>
                <mxCell id="33" value="MPC&lt;br&gt;Weights" style="text;html=1;align=center;verticalAlign=middle;resizable=0;points=[];autosize=1;strokeColor=none;fillColor=none;fontSize=14;fontFamily=Times New Roman;" parent="1" vertex="1">
                    <mxGeometry x="247" y="152" width="60" height="40" as="geometry"/>
                </mxCell>
            </root>
        </mxGraphModel>
    </diagram>
</mxfile>